# xmcd CD database file
#
# Track frame offsets:
#	150
#	5398
#	30509
#	61699
#	83504
#	120291
#	151079
#	180534
#	185743
#	209057
#	245995
#	268614
#	290711
#
# Disc length: 4022 seconds
#
# Revision: 0
# Processed by: cddbd v1.5.2PL0 Copyright (c) Steve Scherf et al.
# Submitted via: CDex 1.51
#
DISCID=ad0fb40d
DTITLE=Ken Lovern's Organ Jazz Trio - OJT
DYEAR=1900
DGENRE=Jazz
TTITLE0=OJT Theme (Intro)
TTITLE1=Swirlies
TTITLE2=Someday My Prince Will Come
TTITLE3=Yuma Green
TTITLE4=It's All Good
TTITLE5=Polka Dots and Moonbeams
TTITLE6=7 Sticks
TTITLE7=OJT Theme (eprise)
TTITLE8=Billie Jean
TTITLE9=Invitation
TTITLE10=All Ice Blues
TTITLE11=Big Cheese
TTITLE12=OJT Theme (Full Version)
EXTD=
EXTT0=
EXTT1=
EXTT2=
EXTT3=
EXTT4=
EXTT5=
EXTT6=
EXTT7=
EXTT8=
EXTT9=
EXTT10=
EXTT11=
EXTT12=
PLAYORDER=
